<?xml version="1.0" standalone="no"?>
<!DOCTYPE svg PUBLIC "-//W3C//DTD SVG 20010904//EN"
 "http://www.w3.org/TR/2001/REC-SVG-20010904/DTD/svg10.dtd">
<svg version="1.0" xmlns="http://www.w3.org/2000/svg"
 width="700.000000pt" height="700.000000pt" viewBox="0 0 700.000000 700.000000"
 preserveAspectRatio="xMidYMid meet">
<metadata>
Created by potrace 1.11, written by Peter Selinger 2001-2013
</metadata>
<g transform="translate(0.000000,700.000000) scale(0.100000,-0.100000)"
fill="#000000" stroke="none">
<path d="M1749 6554 c-40 -12 -88 -56 -415 -379 -203 -201 -405 -401 -449
-445 l-80 -79 -170 165 c-251 243 -264 244 -482 25 -144 -144 -160 -171 -148
-249 6 -46 16 -56 358 -400 212 -213 365 -359 386 -368 44 -19 104 -18 144 2
51 25 1256 1231 1278 1279 42 91 23 131 -139 289 -71 70 -138 133 -148 140
-38 27 -87 34 -135 20z"/>
<path d="M2786 6115 c-46 -12 -85 -38 -117 -79 -41 -52 -45 -89 -44 -361 1
-245 3 -262 23 -302 26 -50 84 -100 132 -113 22 -6 770 -10 2041 -10 l2007 0
53 28 c39 20 62 41 84 77 l30 48 2 272 c2 167 -1 284 -7 302 -16 44 -67 101
-113 125 l-42 22 -2003 1 c-1410 0 -2016 -3 -2046 -10z"/>
<path d="M1723 4369 c-22 -11 -216 -197 -477 -459 l-439 -441 -35 33 c-19 18
-93 89 -164 158 -71 69 -145 133 -166 143 -40 19 -95 16 -139 -6 -45 -24 -282
-269 -294 -304 -11 -36 -6 -101 11 -132 13 -25 668 -681 707 -709 36 -25 101
-33 149 -16 29 10 176 151 657 631 340 340 625 631 634 647 20 38 24 101 9
138 -15 35 -268 293 -309 314 -44 24 -100 25 -144 3z"/>
<path d="M2793 3930 c-75 -17 -146 -88 -162 -161 -4 -19 -7 -149 -6 -291 l1
-256 30 -48 c18 -30 48 -60 78 -79 l49 -30 2006 -2 c2166 -2 2071 -4 2131 50
14 12 36 40 50 62 l25 40 0 280 c0 154 -4 289 -9 300 -5 11 -10 24 -10 28 -1
4 -19 26 -41 48 -73 73 84 68 -2125 67 -1092 0 -1999 -4 -2017 -8z"/>
<path d="M798 1965 c-2 -1 -21 -5 -43 -8 -185 -23 -383 -174 -476 -362 -51
-103 -68 -185 -64 -305 11 -352 303 -632 660 -632 252 0 491 152 594 377 44
97 60 174 57 288 -2 61 -6 121 -9 132 -71 265 -257 446 -513 499 -56 12 -197
20 -206 11z"/>
<path d="M2766 1735 c-47 -17 -91 -57 -119 -110 -19 -37 -21 -57 -22 -297 0
-181 3 -270 12 -300 19 -65 84 -130 144 -145 40 -9 4000 -9 4051 0 58 12 117
60 146 119 20 41 21 58 19 323 l-2 280 -32 47 c-22 31 -50 54 -85 72 l-52 26
-2010 0 c-1682 -1 -2017 -3 -2050 -15z"/>
</g>
</svg>
